<svg id="Capa_1" enable-background="new 0 0 512.005 512.005" height="512" viewBox="0 0 512.005 512.005" width="512" xmlns="http://www.w3.org/2000/svg"><g><path d="m470.797 256.005c0-39.63-26.606-74.153-63.692-85.05-3.867-42.69-39.857-76.256-83.538-76.256-3.805 0-7.587.271-11.33.78-7.301-16.886-21.99-29.848-39.97-34.809 4.088-22.114 16.163-29.072 23.762-31.243 7.966-2.275 12.578-10.578 10.302-18.544-2.275-7.964-10.576-12.58-18.543-10.302-17.673 5.049-31.173 17.226-39.04 35.213-3.621 8.279-5.621 16.77-6.701 24.29-18.87 4.417-34.404 17.575-42.083 34.963-2.52-.228-5.052-.348-7.588-.348-43.311 0-79.061 32.996-83.433 75.17-16.866 4.076-32.227 13.048-44.199 25.994-15.178 16.414-23.537 37.772-23.537 60.142 0 35.595 21.093 66.352 51.434 80.442l29.589 125.121c7.023 29.697 33.241 50.437 63.756 50.437h140.03c30.516 0 56.733-20.74 63.756-50.437l29.59-125.121c30.342-14.091 51.435-44.847 51.435-80.442zm-214.795-167.544c17.225 0 31.238 14.014 31.238 31.238s-14.014 31.238-31.238 31.238c-17.225 0-31.238-14.014-31.238-31.238s14.014-31.238 31.238-31.238zm-104.577 366.202-26.044-110.131c1.48.074 2.969.112 4.466.112 8.236 0 16.274-1.144 23.956-3.285l33.261 140.645h-1.077c-16.542.001-30.755-11.243-34.562-27.341zm119.447 27.342v-138.871c18.108-3.393 34.765-12.383 47.549-25.582 3.728 3.849 7.788 7.337 12.116 10.437l-36.423 154.015h-23.242zm-30 0h-22.981l-36.401-153.926c3.808-2.737 7.419-5.769 10.776-9.112 13.178 13.124 30.117 21.722 48.606 24.6zm119.707-27.342c-3.807 16.099-18.02 27.342-34.562 27.342h-1.077l33.271-140.689c7.706 2.178 15.754 3.329 23.946 3.329 1.498 0 2.987-.038 4.467-.112zm21.579-140.019c-20.835 0-40.284-11.225-50.76-29.296-2.683-4.629-7.627-7.478-12.977-7.478s-10.294 2.849-12.977 7.478c-10.476 18.07-29.925 29.296-50.76 29.296-20.309 0-38.893-10.299-49.71-27.55-2.744-4.375-7.544-7.031-12.708-7.031s-9.964 2.656-12.708 7.031c-5.435 8.668-12.832 15.578-21.422 20.311-.519.238-1.017.508-1.498.799-8.137 4.178-17.275 6.439-26.791 6.439-32.334 0-58.64-26.306-58.64-58.64 0-14.795 5.527-28.921 15.563-39.773 9.983-10.797 23.516-17.415 38.104-18.638 8.108-.679 14.197-7.698 13.723-15.821-.07-1.198-.104-2.241-.104-3.191 0-29.711 24.171-53.882 53.882-53.882.873 0 1.745.041 2.616.083 2.594 31.395 28.957 56.155 61.011 56.155 31.945 0 58.24-24.591 60.986-55.835 2.174-.266 4.369-.403 6.578-.403 29.711 0 53.882 24.171 53.882 53.882 0 1.024-.042 2.146-.131 3.532-.505 7.846 5.135 14.751 12.923 15.823 28.822 3.967 50.556 28.932 50.556 58.068.001 32.336-26.304 58.641-58.638 58.641z"/></g></svg>