<svg id="Capa_1" enable-background="new 0 0 512 512" height="512" viewBox="0 0 512 512" width="512" xmlns="http://www.w3.org/2000/svg"><g><path d="m107.192 150c.949 11.445 27.911 336.798 28.86 348.239.644 7.778 7.144 13.761 14.948 13.761h210c7.804 0 14.304-5.983 14.949-13.761.948-11.441 27.911-336.794 28.86-348.239h16.191c8.284 0 15-6.716 15-15v-60c0-8.284-6.716-15-15-15h-20.729l-25.854-51.708c-2.542-5.082-7.735-8.292-13.417-8.292h-210c-5.682 0-10.875 3.21-13.417 8.292l-25.854 51.708h-20.729c-8.284 0-15 6.716-15 15v60c0 8.284 6.716 15 15 15zm247.541 241h-197.466l-12.431-150h222.328zm-189.925 91-5.055-61h192.494l-5.055 61zm204.842-271h-227.3l-5.055-61h237.411zm-263.65-121h75c8.284 0 15-6.716 15-15s-6.716-15-15-15h-35.729l15-30h191.459l15 30h-35.73c-8.284 0-15 6.716-15 15s6.716 15 15 15h75v30h-300z"/><path d="m256 361c33.645 0 60-19.767 60-45s-26.355-45-60-45-60 19.767-60 45 26.355 45 60 45zm0-60c18.313 0 30 8.884 30 15s-11.687 15-30 15-30-8.884-30-15 11.687-15 30-15z"/></g></svg>